Input #0, mov,mp4,m4a,3gp,3g2,mj2, from '/home/hbattu/projects/huberman-gpt/huberman-audio/mp3/tmp5i5hjfsu.mp4':
  Metadata:
    major_brand     : dash
    minor_version   : 0
    compatible_brands: iso6mp41
    creation_time   : 2022-09-12T15:42:16.000000Z
  Duration: 01:51:30.67, start: 0.000000, bitrate: 129 kb/s
    Stream #0:0(eng): Audio: aac (LC) (mp4a / 0x6134706D), 44100 Hz, stereo, fltp, 0 kb/s (default)
    Metadata:
      creation_time   : 2022-09-12T15:42:16.000000Z
      handler_name    : ISO Media file produced by Google Inc.
Stream mapping:
  Stream #0:0 -> #0:0 (aac (native) -> mp3 (libmp3lame))
Press [q] to stop, [?] for help
[graph_0_in_0_0 @ 0x55940a649fc0] tb:1/44100 samplefmt:fltp samplerate:44100 chlayout:0x3
Output #0, mp3, to '../huberman-audio/mp3/yb5zpo5WDG4.mp3':
  Metadata:
    major_brand     : dash
    minor_version   : 0
    compatible_brands: iso6mp41
    TSSE            : Lavf58.29.100
    Stream #0:0(eng): Audio: mp3 (libmp3lame), 44100 Hz, stereo, fltp, delay 1105 (default)
    Metadata:
      creation_time   : 2022-09-12T15:42:16.000000Z
      handler_name    : ISO Media file produced by Google Inc.
      encoder         : Lavc58.54.100 libmp3lame
No more output streams to write to, finishing.
size=  104543kB time=01:51:30.69 bitrate= 128.0kbits/s speed=94.2x    
[AVIOContext @ 0x55940a53b900] Statistics: 0 seeks, 143 writeouts
video:0kB audio:104542kB subtitle:0kB other streams:0kB global headers:0kB muxing overhead: 0.000323%
Input file #0 (/home/hbattu/projects/huberman-gpt/huberman-audio/mp3/tmp5i5hjfsu.mp4):
  Input stream #0:0 (audio): 288143 packets read (107050890 bytes); 288143 frames decoded (295058432 samples); 
  Total: 288143 packets (107050890 bytes) demuxed
Output file #0 (../huberman-audio/mp3/yb5zpo5WDG4.mp3):
  Output stream #0:0 (audio): 256128 frames encoded (295058432 samples); 256129 packets muxed (107051467 bytes); 
  Total: 256129 packets (107051467 bytes) muxed
[AVIOContext @ 0x55940a562600] Statistics: 2 seeks, 410 writeouts
[AVIOContext @ 0x55940a544880] Statistics: 108281962 bytes read, 0 seeks
